<mxfile host="app.diagrams.net" modified="2024-05-17T22:43:41.142Z" agent="Mozilla/5.0 (Windows NT 10.0; Win64; x64) AppleWebKit/537.36 (KHTML, like Gecko) Chrome/124.0.0.0 Safari/537.36" etag="SLw8I1Fnv1rUeu1rMZIW" version="23.1.1" type="device">
  <diagram id="C5RBs43oDa-KdzZeNtuy" name="Page-1">
    <mxGraphModel dx="1434" dy="746" grid="1" gridSize="10" guides="1" tooltips="1" connect="1" arrows="1" fold="1" page="1" pageScale="1" pageWidth="827" pageHeight="1169" background="none" math="0" shadow="0">
      <root>
        <mxCell id="WIyWlLk6GJQsqaUBKTNV-0" />
        <mxCell id="WIyWlLk6GJQsqaUBKTNV-1" parent="WIyWlLk6GJQsqaUBKTNV-0" />
        <mxCell id="7eEl2vRfFGt30MeVfcy9-11" value="" style="whiteSpace=wrap;html=1;fillColor=none;" parent="WIyWlLk6GJQsqaUBKTNV-1" vertex="1">
          <mxGeometry x="14" y="625" width="800" height="130" as="geometry" />
        </mxCell>
        <mxCell id="7eEl2vRfFGt30MeVfcy9-16" value="" style="edgeStyle=orthogonalEdgeStyle;rounded=0;orthogonalLoop=1;jettySize=auto;html=1;" parent="WIyWlLk6GJQsqaUBKTNV-1" source="zkfFHV4jXpPFQw0GAbJ--0" target="7eEl2vRfFGt30MeVfcy9-15" edge="1">
          <mxGeometry relative="1" as="geometry" />
        </mxCell>
        <mxCell id="zkfFHV4jXpPFQw0GAbJ--0" value="Game Manager" style="swimlane;fontStyle=2;align=center;verticalAlign=top;childLayout=stackLayout;horizontal=1;startSize=26;horizontalStack=0;resizeParent=1;resizeLast=0;collapsible=1;marginBottom=0;rounded=0;shadow=0;strokeWidth=1;" parent="WIyWlLk6GJQsqaUBKTNV-1" vertex="1">
          <mxGeometry x="86.25" y="275" width="182.5" height="318" as="geometry">
            <mxRectangle x="86.25" y="20" width="160" height="26" as="alternateBounds" />
          </mxGeometry>
        </mxCell>
        <mxCell id="zkfFHV4jXpPFQw0GAbJ--1" value="InPlayClientIDs" style="text;align=left;verticalAlign=top;spacingLeft=4;spacingRight=4;overflow=hidden;rotatable=0;points=[[0,0.5],[1,0.5]];portConstraint=eastwest;fontStyle=2" parent="zkfFHV4jXpPFQw0GAbJ--0" vertex="1">
          <mxGeometry y="26" width="182.5" height="26" as="geometry" />
        </mxCell>
        <mxCell id="zkfFHV4jXpPFQw0GAbJ--2" value="PlayersReadyForNextRound" style="text;align=left;verticalAlign=top;spacingLeft=4;spacingRight=4;overflow=hidden;rotatable=0;points=[[0,0.5],[1,0.5]];portConstraint=eastwest;rounded=0;shadow=0;html=0;fontStyle=2" parent="zkfFHV4jXpPFQw0GAbJ--0" vertex="1">
          <mxGeometry y="52" width="182.5" height="26" as="geometry" />
        </mxCell>
        <mxCell id="zkfFHV4jXpPFQw0GAbJ--3" value="PlayerData" style="text;align=left;verticalAlign=top;spacingLeft=4;spacingRight=4;overflow=hidden;rotatable=0;points=[[0,0.5],[1,0.5]];portConstraint=eastwest;rounded=0;shadow=0;html=0;" parent="zkfFHV4jXpPFQw0GAbJ--0" vertex="1">
          <mxGeometry y="78" width="182.5" height="26" as="geometry" />
        </mxCell>
        <mxCell id="7eEl2vRfFGt30MeVfcy9-25" value="ConnectedClientIDs" style="text;align=left;verticalAlign=middle;resizable=0;points=[];autosize=1;strokeColor=none;fillColor=none;spacingLeft=4;" parent="zkfFHV4jXpPFQw0GAbJ--0" vertex="1">
          <mxGeometry y="104" width="182.5" height="30" as="geometry" />
        </mxCell>
        <mxCell id="7eEl2vRfFGt30MeVfcy9-26" value="EliminatedClientIDs" style="text;align=left;verticalAlign=middle;resizable=0;points=[];autosize=1;strokeColor=none;fillColor=none;spacingLeft=4;" parent="zkfFHV4jXpPFQw0GAbJ--0" vertex="1">
          <mxGeometry y="134" width="182.5" height="30" as="geometry" />
        </mxCell>
        <mxCell id="7eEl2vRfFGt30MeVfcy9-28" value="LastRoundLosingClientID" style="text;align=left;verticalAlign=middle;resizable=0;points=[];autosize=1;strokeColor=none;fillColor=none;spacingLeft=4;" parent="zkfFHV4jXpPFQw0GAbJ--0" vertex="1">
          <mxGeometry y="164" width="182.5" height="30" as="geometry" />
        </mxCell>
        <mxCell id="7eEl2vRfFGt30MeVfcy9-27" value="NotInPlayClientIDs" style="text;align=left;verticalAlign=middle;resizable=0;points=[];autosize=1;strokeColor=none;fillColor=none;spacingLeft=4;" parent="zkfFHV4jXpPFQw0GAbJ--0" vertex="1">
          <mxGeometry y="194" width="182.5" height="30" as="geometry" />
        </mxCell>
        <mxCell id="7eEl2vRfFGt30MeVfcy9-29" value="RoundOver" style="text;align=left;verticalAlign=middle;resizable=0;points=[];autosize=1;strokeColor=none;fillColor=none;spacingLeft=4;" parent="zkfFHV4jXpPFQw0GAbJ--0" vertex="1">
          <mxGeometry y="224" width="182.5" height="30" as="geometry" />
        </mxCell>
        <mxCell id="zkfFHV4jXpPFQw0GAbJ--4" value="" style="line;html=1;strokeWidth=1;align=left;verticalAlign=middle;spacingTop=-1;spacingLeft=3;spacingRight=3;rotatable=0;labelPosition=right;points=[];portConstraint=eastwest;" parent="zkfFHV4jXpPFQw0GAbJ--0" vertex="1">
          <mxGeometry y="254" width="182.5" height="8" as="geometry" />
        </mxCell>
        <mxCell id="zkfFHV4jXpPFQw0GAbJ--5" value="12 Client Rpcs" style="text;align=left;verticalAlign=top;spacingLeft=4;spacingRight=4;overflow=hidden;rotatable=0;points=[[0,0.5],[1,0.5]];portConstraint=eastwest;" parent="zkfFHV4jXpPFQw0GAbJ--0" vertex="1">
          <mxGeometry y="262" width="182.5" height="26" as="geometry" />
        </mxCell>
        <mxCell id="7eEl2vRfFGt30MeVfcy9-35" value="3 Server Rpcs" style="text;align=left;verticalAlign=middle;resizable=0;points=[];autosize=1;strokeColor=none;fillColor=none;spacingLeft=4;" parent="zkfFHV4jXpPFQw0GAbJ--0" vertex="1">
          <mxGeometry y="288" width="182.5" height="30" as="geometry" />
        </mxCell>
        <mxCell id="7eEl2vRfFGt30MeVfcy9-18" value="" style="edgeStyle=orthogonalEdgeStyle;rounded=0;orthogonalLoop=1;jettySize=auto;html=1;" parent="WIyWlLk6GJQsqaUBKTNV-1" source="zkfFHV4jXpPFQw0GAbJ--17" target="7eEl2vRfFGt30MeVfcy9-17" edge="1">
          <mxGeometry relative="1" as="geometry" />
        </mxCell>
        <mxCell id="zkfFHV4jXpPFQw0GAbJ--17" value="Card Manager" style="swimlane;fontStyle=2;align=center;verticalAlign=top;childLayout=stackLayout;horizontal=1;startSize=26;horizontalStack=0;resizeParent=1;resizeLast=0;collapsible=1;marginBottom=0;rounded=0;shadow=0;strokeWidth=1;" parent="WIyWlLk6GJQsqaUBKTNV-1" vertex="1">
          <mxGeometry x="564" y="395" width="222" height="172" as="geometry">
            <mxRectangle x="550" y="140" width="160" height="26" as="alternateBounds" />
          </mxGeometry>
        </mxCell>
        <mxCell id="zkfFHV4jXpPFQw0GAbJ--24" value="ClientCardInfo" style="text;align=left;verticalAlign=top;spacingLeft=4;spacingRight=4;overflow=hidden;rotatable=0;points=[[0,0.5],[1,0.5]];portConstraint=eastwest;" parent="zkfFHV4jXpPFQw0GAbJ--17" vertex="1">
          <mxGeometry y="26" width="222" height="26" as="geometry" />
        </mxCell>
        <mxCell id="7eEl2vRfFGt30MeVfcy9-34" value="Deck" style="text;align=left;verticalAlign=middle;resizable=0;points=[];autosize=1;strokeColor=none;fillColor=none;spacingLeft=4;" parent="zkfFHV4jXpPFQw0GAbJ--17" vertex="1">
          <mxGeometry y="52" width="222" height="30" as="geometry" />
        </mxCell>
        <mxCell id="7eEl2vRfFGt30MeVfcy9-33" value="HandsInPlay" style="text;align=left;verticalAlign=middle;resizable=0;points=[];autosize=1;strokeColor=none;fillColor=none;spacingLeft=4;" parent="zkfFHV4jXpPFQw0GAbJ--17" vertex="1">
          <mxGeometry y="82" width="222" height="30" as="geometry" />
        </mxCell>
        <mxCell id="zkfFHV4jXpPFQw0GAbJ--23" value="" style="line;html=1;strokeWidth=1;align=left;verticalAlign=middle;spacingTop=-1;spacingLeft=3;spacingRight=3;rotatable=0;labelPosition=right;points=[];portConstraint=eastwest;" parent="zkfFHV4jXpPFQw0GAbJ--17" vertex="1">
          <mxGeometry y="112" width="222" height="8" as="geometry" />
        </mxCell>
        <mxCell id="7eEl2vRfFGt30MeVfcy9-24" value="SendCardInfoToPlayerClientRpc" style="text;align=left;verticalAlign=top;spacingLeft=4;spacingRight=4;overflow=hidden;rotatable=0;points=[[0,0.5],[1,0.5]];portConstraint=eastwest;" parent="zkfFHV4jXpPFQw0GAbJ--17" vertex="1">
          <mxGeometry y="120" width="222" height="26" as="geometry" />
        </mxCell>
        <mxCell id="zkfFHV4jXpPFQw0GAbJ--25" value="DestroyCardGameObjectsClientRpc" style="text;align=left;verticalAlign=top;spacingLeft=4;spacingRight=4;overflow=hidden;rotatable=0;points=[[0,0.5],[1,0.5]];portConstraint=eastwest;" parent="zkfFHV4jXpPFQw0GAbJ--17" vertex="1">
          <mxGeometry y="146" width="222" height="26" as="geometry" />
        </mxCell>
        <mxCell id="7eEl2vRfFGt30MeVfcy9-10" value="" style="edgeStyle=orthogonalEdgeStyle;rounded=0;orthogonalLoop=1;jettySize=auto;html=1;" parent="WIyWlLk6GJQsqaUBKTNV-1" source="7eEl2vRfFGt30MeVfcy9-2" target="7eEl2vRfFGt30MeVfcy9-9" edge="1">
          <mxGeometry relative="1" as="geometry" />
        </mxCell>
        <mxCell id="7eEl2vRfFGt30MeVfcy9-2" value="Turn Manager" style="swimlane;fontStyle=2;align=center;verticalAlign=top;childLayout=stackLayout;horizontal=1;startSize=26;horizontalStack=0;resizeParent=1;resizeLast=0;collapsible=1;marginBottom=0;rounded=0;shadow=0;strokeWidth=1;" parent="WIyWlLk6GJQsqaUBKTNV-1" vertex="1">
          <mxGeometry x="374" y="395" width="160" height="180" as="geometry">
            <mxRectangle x="230" y="140" width="160" height="26" as="alternateBounds" />
          </mxGeometry>
        </mxCell>
        <mxCell id="7eEl2vRfFGt30MeVfcy9-3" value="CurrentTurnClientID" style="text;align=left;verticalAlign=top;spacingLeft=4;spacingRight=4;overflow=hidden;rotatable=0;points=[[0,0.5],[1,0.5]];portConstraint=eastwest;fontStyle=2" parent="7eEl2vRfFGt30MeVfcy9-2" vertex="1">
          <mxGeometry y="26" width="160" height="26" as="geometry" />
        </mxCell>
        <mxCell id="7eEl2vRfFGt30MeVfcy9-30" value="CurrentTurnObject" style="text;align=left;verticalAlign=middle;resizable=0;points=[];autosize=1;strokeColor=none;fillColor=none;spacingLeft=4;" parent="7eEl2vRfFGt30MeVfcy9-2" vertex="1">
          <mxGeometry y="52" width="160" height="30" as="geometry" />
        </mxCell>
        <mxCell id="7eEl2vRfFGt30MeVfcy9-31" value="PlayerTurns" style="text;align=left;verticalAlign=middle;resizable=0;points=[];autosize=1;strokeColor=none;fillColor=none;spacingLeft=4;" parent="7eEl2vRfFGt30MeVfcy9-2" vertex="1">
          <mxGeometry y="82" width="160" height="30" as="geometry" />
        </mxCell>
        <mxCell id="7eEl2vRfFGt30MeVfcy9-32" value="TurnPositions" style="text;align=left;verticalAlign=middle;resizable=0;points=[];autosize=1;strokeColor=none;fillColor=none;spacingLeft=4;" parent="7eEl2vRfFGt30MeVfcy9-2" vertex="1">
          <mxGeometry y="112" width="160" height="30" as="geometry" />
        </mxCell>
        <mxCell id="7eEl2vRfFGt30MeVfcy9-6" value="" style="line;html=1;strokeWidth=1;align=left;verticalAlign=middle;spacingTop=-1;spacingLeft=3;spacingRight=3;rotatable=0;labelPosition=right;points=[];portConstraint=eastwest;" parent="7eEl2vRfFGt30MeVfcy9-2" vertex="1">
          <mxGeometry y="142" width="160" height="8" as="geometry" />
        </mxCell>
        <mxCell id="7eEl2vRfFGt30MeVfcy9-7" value="NextRoundClientRpc" style="text;align=left;verticalAlign=top;spacingLeft=4;spacingRight=4;overflow=hidden;rotatable=0;points=[[0,0.5],[1,0.5]];portConstraint=eastwest;" parent="7eEl2vRfFGt30MeVfcy9-2" vertex="1">
          <mxGeometry y="150" width="160" height="30" as="geometry" />
        </mxCell>
        <mxCell id="7eEl2vRfFGt30MeVfcy9-8" value="&lt;u&gt;On Client Connection&lt;/u&gt;&lt;div&gt;&lt;u&gt;to Relay Instance&lt;/u&gt;&lt;/div&gt;" style="text;html=1;align=center;verticalAlign=middle;resizable=0;points=[];autosize=1;strokeColor=none;fillColor=none;" parent="WIyWlLk6GJQsqaUBKTNV-1" vertex="1">
          <mxGeometry x="14" y="625" width="140" height="40" as="geometry" />
        </mxCell>
        <mxCell id="7eEl2vRfFGt30MeVfcy9-43" value="" style="edgeStyle=orthogonalEdgeStyle;rounded=0;orthogonalLoop=1;jettySize=auto;html=1;" parent="WIyWlLk6GJQsqaUBKTNV-1" source="7eEl2vRfFGt30MeVfcy9-9" target="7eEl2vRfFGt30MeVfcy9-42" edge="1">
          <mxGeometry relative="1" as="geometry" />
        </mxCell>
        <mxCell id="-vqzOYQTrEBzVTX8V2Eq-1" value="" style="edgeStyle=orthogonalEdgeStyle;rounded=0;orthogonalLoop=1;jettySize=auto;html=1;" edge="1" parent="WIyWlLk6GJQsqaUBKTNV-1" source="7eEl2vRfFGt30MeVfcy9-9" target="7eEl2vRfFGt30MeVfcy9-17">
          <mxGeometry relative="1" as="geometry" />
        </mxCell>
        <mxCell id="7eEl2vRfFGt30MeVfcy9-9" value="&lt;ul style=&quot;padding-left: 20px; margin-top: 12px;&quot;&gt;&lt;li style=&quot;&quot;&gt;&lt;span style=&quot;font-style: normal;&quot;&gt;Set &lt;/span&gt;CurrentTurnClientID&lt;span style=&quot;font-style: normal;&quot;&gt;&amp;nbsp;and CurrentTurnObject to Host&lt;/span&gt;&lt;/li&gt;&lt;li style=&quot;&quot;&gt;&lt;span style=&quot;font-style: normal;&quot;&gt;Add to PlayerTurns&lt;/span&gt;&lt;/li&gt;&lt;li&gt;&lt;span style=&quot;font-style: normal;&quot;&gt;Add to TurnPositions&lt;/span&gt;&lt;/li&gt;&lt;/ul&gt;" style="whiteSpace=wrap;html=1;verticalAlign=middle;fontStyle=2;startSize=26;rounded=0;shadow=0;strokeWidth=1;fillColor=none;align=left;" parent="WIyWlLk6GJQsqaUBKTNV-1" vertex="1">
          <mxGeometry x="363.5" y="661.25" width="181" height="77.5" as="geometry" />
        </mxCell>
        <mxCell id="7eEl2vRfFGt30MeVfcy9-48" value="" style="edgeStyle=orthogonalEdgeStyle;rounded=0;orthogonalLoop=1;jettySize=auto;html=1;" parent="WIyWlLk6GJQsqaUBKTNV-1" source="7eEl2vRfFGt30MeVfcy9-15" target="7eEl2vRfFGt30MeVfcy9-47" edge="1">
          <mxGeometry relative="1" as="geometry" />
        </mxCell>
        <mxCell id="7eEl2vRfFGt30MeVfcy9-15" value="&lt;ul style=&quot;padding-left: 20px;&quot;&gt;&lt;li&gt;Add to &lt;i&gt;InPlayClientIDs&lt;/i&gt;&lt;/li&gt;&lt;li&gt;When # connected clients equals # players in lobby&lt;/li&gt;&lt;ul style=&quot;padding-left: 20px;&quot;&gt;&lt;li&gt;Switch to Game Scene&lt;/li&gt;&lt;/ul&gt;&lt;/ul&gt;" style="whiteSpace=wrap;html=1;fillColor=none;align=left;" parent="WIyWlLk6GJQsqaUBKTNV-1" vertex="1">
          <mxGeometry x="77.5" y="665" width="200" height="70" as="geometry" />
        </mxCell>
        <mxCell id="7eEl2vRfFGt30MeVfcy9-46" value="" style="edgeStyle=orthogonalEdgeStyle;rounded=0;orthogonalLoop=1;jettySize=auto;html=1;" parent="WIyWlLk6GJQsqaUBKTNV-1" source="7eEl2vRfFGt30MeVfcy9-17" target="7eEl2vRfFGt30MeVfcy9-45" edge="1">
          <mxGeometry relative="1" as="geometry" />
        </mxCell>
        <mxCell id="7eEl2vRfFGt30MeVfcy9-17" value="&lt;ul style=&quot;padding-left: 20px; margin-top: 12px;&quot;&gt;&lt;li&gt;Initialize empty hand&lt;/li&gt;&lt;li&gt;When turn order determined and all clients have empty hands&lt;/li&gt;&lt;ul style=&quot;padding-left: 20px;&quot;&gt;&lt;li&gt;Distribute cards&lt;/li&gt;&lt;/ul&gt;&lt;/ul&gt;" style="whiteSpace=wrap;html=1;fillColor=none;align=left;" parent="WIyWlLk6GJQsqaUBKTNV-1" vertex="1">
          <mxGeometry x="571.25" y="663.75" width="207.5" height="72.5" as="geometry" />
        </mxCell>
        <mxCell id="7eEl2vRfFGt30MeVfcy9-19" value="(Game Scene Only)" style="text;html=1;align=center;verticalAlign=middle;resizable=0;points=[];autosize=1;strokeColor=none;fillColor=none;" parent="WIyWlLk6GJQsqaUBKTNV-1" vertex="1">
          <mxGeometry x="480" y="365" width="130" height="30" as="geometry" />
        </mxCell>
        <mxCell id="7eEl2vRfFGt30MeVfcy9-20" value="&lt;u&gt;On Player Load in&lt;/u&gt;" style="text;html=1;align=center;verticalAlign=middle;resizable=0;points=[];autosize=1;strokeColor=none;fillColor=none;" parent="WIyWlLk6GJQsqaUBKTNV-1" vertex="1">
          <mxGeometry x="320" y="630" width="120" height="30" as="geometry" />
        </mxCell>
        <mxCell id="7eEl2vRfFGt30MeVfcy9-21" value="" style="endArrow=none;html=1;rounded=0;" parent="WIyWlLk6GJQsqaUBKTNV-1" edge="1">
          <mxGeometry width="50" height="50" relative="1" as="geometry">
            <mxPoint x="320" y="755" as="sourcePoint" />
            <mxPoint x="320" y="275" as="targetPoint" />
          </mxGeometry>
        </mxCell>
        <mxCell id="7eEl2vRfFGt30MeVfcy9-37" value="" style="whiteSpace=wrap;html=1;fillColor=none;" parent="WIyWlLk6GJQsqaUBKTNV-1" vertex="1">
          <mxGeometry x="14" y="795" width="800" height="100" as="geometry" />
        </mxCell>
        <mxCell id="7eEl2vRfFGt30MeVfcy9-38" value="&lt;u&gt;On Disconnect&lt;/u&gt;" style="text;html=1;align=center;verticalAlign=middle;resizable=0;points=[];autosize=1;strokeColor=none;fillColor=none;" parent="WIyWlLk6GJQsqaUBKTNV-1" vertex="1">
          <mxGeometry x="34" y="795" width="100" height="30" as="geometry" />
        </mxCell>
        <mxCell id="7eEl2vRfFGt30MeVfcy9-40" value="&lt;u&gt;Gameplay&lt;/u&gt;" style="text;html=1;align=center;verticalAlign=middle;resizable=0;points=[];autosize=1;strokeColor=none;fillColor=none;" parent="WIyWlLk6GJQsqaUBKTNV-1" vertex="1">
          <mxGeometry x="374" y="760" width="80" height="30" as="geometry" />
        </mxCell>
        <mxCell id="7eEl2vRfFGt30MeVfcy9-42" value="&lt;ul style=&quot;padding-left: 20px;&quot;&gt;&lt;li&gt;Update turn order&lt;/li&gt;&lt;li&gt;Remove from PlayerTurns&lt;/li&gt;&lt;li&gt;Remove from TurnPositions&lt;/li&gt;&lt;/ul&gt;" style="whiteSpace=wrap;html=1;fillColor=none;align=left;" parent="WIyWlLk6GJQsqaUBKTNV-1" vertex="1">
          <mxGeometry x="366" y="820" width="176" height="60" as="geometry" />
        </mxCell>
        <mxCell id="7eEl2vRfFGt30MeVfcy9-45" value="&lt;ul style=&quot;padding-left: 20px;&quot;&gt;&lt;li&gt;Remove from ClientCardInfo&lt;/li&gt;&lt;/ul&gt;" style="whiteSpace=wrap;html=1;fillColor=none;align=left;" parent="WIyWlLk6GJQsqaUBKTNV-1" vertex="1">
          <mxGeometry x="578.75" y="830" width="192.5" height="40" as="geometry" />
        </mxCell>
        <mxCell id="7eEl2vRfFGt30MeVfcy9-47" value="&lt;ul style=&quot;padding-left: 20px;&quot;&gt;&lt;li&gt;Remove from &lt;i&gt;ConnectedClientIDs&lt;/i&gt;&lt;/li&gt;&lt;li&gt;Remove from &lt;i&gt;InPlayClientsIDs&lt;/i&gt;&lt;/li&gt;&lt;/ul&gt;" style="whiteSpace=wrap;html=1;fillColor=none;align=left;" parent="WIyWlLk6GJQsqaUBKTNV-1" vertex="1">
          <mxGeometry x="68.13" y="825" width="218.75" height="50" as="geometry" />
        </mxCell>
      </root>
    </mxGraphModel>
  </diagram>
</mxfile>
